<svg width="14" height="23" viewBox="0 0 14 23" fill="none" xmlns="http://www.w3.org/2000/svg">
<path d="M12.4584 7.76235H8.23792L12.4124 1.28474C12.5786 1.03094 12.5932 0.707503 12.4506 0.440216C12.3079 0.172933 12.0317 0.00448497 11.7285 0H6.841C6.29182 0 5.79209 0.312194 5.55062 0.805224L0.294876 11.4797C0.194925 11.6796 0.205033 11.9166 0.322952 12.1064C0.441993 12.2962 0.649751 12.4107 0.87213 12.4119H4.3221L0.0219991 22.6238C-0.0307826 22.7462 0.0141376 22.8899 0.127565 22.9596C0.171363 22.9854 0.220778 23 0.271314 23C0.348803 23 0.421802 22.9663 0.47346 22.9079L12.9448 8.8441C13.1167 8.65318 13.1604 8.37915 13.0549 8.14444C12.9493 7.90972 12.7157 7.76037 12.4586 7.76261L12.4584 7.76235Z" fill="white"/>
</svg>
