<svg width="24" height="24" viewBox="0 0 24 24" fill="none" xmlns="http://www.w3.org/2000/svg">
<path d="M21.5199 6.47609C21.2383 5.59115 20.7154 4.78667 20.0718 4.18331C19.5892 1.76986 17.4573 0 15.0036 0H8.36662C5.87272 0 3.78107 1.76986 3.29838 4.14309C2.61457 4.74645 2.13188 5.55093 1.85031 6.43586C0.724035 7.44147 0 8.84931 0 10.4181V18.1411C0 20.997 2.333 23.33 5.18891 23.33H18.1411C20.997 23.33 23.33 20.997 23.33 18.1411V10.4181C23.33 8.84931 22.606 7.44146 21.5199 6.47609ZM8.36662 1.60897H14.9634C16.0897 1.60897 17.0953 2.13188 17.7388 2.97659C17.3366 2.89614 16.9344 2.81569 16.5321 2.81569H6.75765C6.35541 2.81569 5.95317 2.85591 5.55093 2.97659C6.23474 2.13188 7.24034 1.60897 8.36662 1.60897ZM17.2562 11.0214L10.6192 17.6584C10.4583 17.8193 10.2572 17.8997 10.056 17.8997C9.85491 17.8997 9.65379 17.8193 9.4929 17.6584L6.07384 14.2393C5.75205 13.9176 5.75205 13.4349 6.07384 13.1131C6.39564 12.7913 6.87833 12.7913 7.20012 13.1131L10.056 15.969L16.1299 9.89514C16.4517 9.57334 16.9344 9.57334 17.2562 9.89514C17.5779 10.2169 17.5779 10.6996 17.2562 11.0214ZM5.18891 5.22914C4.94757 5.22914 4.70622 5.26936 4.5051 5.26936C4.58555 5.22914 4.62578 5.18891 4.666 5.10847C5.26936 4.666 5.9934 4.42465 6.79788 4.42465H16.5723C17.4573 4.42465 18.2618 4.74645 18.9053 5.26936C18.664 5.22914 18.4227 5.22914 18.1813 5.22914H5.18891Z" fill="white"/>
</svg>
