<svg width="24" height="24" viewBox="0 0 24 24" fill="none" xmlns="http://www.w3.org/2000/svg">
<path d="M6.80308 12.6377C3.05631 12.6377 0 15.694 0 19.4408V20.4167C0 22.0159 1.31438 23.3303 2.91356 23.3303H16.5269C18.1261 23.3303 19.4405 22.0159 19.4405 20.4167V19.4408C19.4405 15.694 16.3842 12.6377 12.6374 12.6377H6.80308ZM6.80308 14.5825H12.6374C15.3334 14.5825 17.4957 16.7448 17.4957 19.4408V20.4167C17.4957 20.9652 17.0753 21.3855 16.5269 21.3855H2.91356C2.36514 21.3855 1.94476 20.9652 1.94476 20.4167V19.4408C1.94476 16.7448 4.10707 14.5825 6.80308 14.5825Z" fill="white"/>
<path d="M9.72391 0C6.51406 1.10227e-05 3.88965 2.62442 3.88965 5.83429C3.88965 9.04416 6.51406 11.6686 9.72391 11.6686C12.9338 11.6686 15.5511 9.04416 15.5511 5.83429C15.5511 2.62442 12.9338 1.10227e-05 9.72391 0ZM9.72391 1.94476C11.883 1.94477 13.6063 3.67519 13.6063 5.83429C13.6063 7.99339 11.883 9.72381 9.72391 9.72382C7.56482 9.72381 5.83441 7.99339 5.83441 5.83429C5.83441 3.67519 7.56482 1.94477 9.72391 1.94476Z" fill="white"/>
<path d="M20.4164 2.91309C20.2881 2.91259 20.1609 2.9375 20.0423 2.98637C19.9237 3.03524 19.8159 3.10709 19.7251 3.19782C19.6344 3.28854 19.5626 3.39634 19.5137 3.51497C19.4648 3.63361 19.4399 3.76076 19.4404 3.88906V7.77859C19.4409 7.90629 19.4665 8.03266 19.5158 8.15047C19.565 8.26827 19.6371 8.37522 19.7277 8.46518C19.8183 8.55515 19.9258 8.62639 20.0439 8.67481C20.1621 8.72323 20.2887 8.74788 20.4164 8.74738C20.673 8.7465 20.919 8.64415 21.1004 8.46266C21.2819 8.28117 21.3843 8.03526 21.3852 7.77859V3.88906C21.3857 3.76136 21.361 3.6348 21.3126 3.51663C21.2642 3.39846 21.1929 3.291 21.103 3.20037C21.013 3.10973 20.9061 3.03771 20.7883 2.98842C20.6704 2.93912 20.5441 2.91353 20.4164 2.91309Z" fill="white"/>
<path d="M18.4721 4.85841C18.3438 4.8579 18.2166 4.88281 18.098 4.93168C17.9793 4.98055 17.8716 5.0524 17.7808 5.14313C17.6901 5.23386 17.6182 5.34165 17.5694 5.46029C17.5205 5.57892 17.4956 5.70607 17.4961 5.83438C17.4965 5.96208 17.5221 6.08844 17.5714 6.20625C17.6207 6.32406 17.6927 6.431 17.7834 6.52097C17.874 6.61094 17.9815 6.68217 18.0996 6.73059C18.2178 6.77901 18.3444 6.80367 18.4721 6.80317H22.3616C22.6183 6.80228 22.8642 6.69994 23.0457 6.51845C23.2272 6.33695 23.3295 6.09104 23.3304 5.83438C23.3309 5.70667 23.3062 5.58011 23.2578 5.46194C23.2094 5.34377 23.1382 5.23631 23.0482 5.14568C22.9582 5.05505 22.8513 4.98302 22.7335 4.93373C22.6157 4.88444 22.4893 4.85885 22.3616 4.85841H18.4721Z" fill="white"/>
</svg>
