<svg width="25" height="25" viewBox="0 0 25 25" fill="none" xmlns="http://www.w3.org/2000/svg">
<path d="M9.375 14.0625L15.625 17.1875M15.625 7.8125L9.375 10.9375M18.75 21.875C17.0241 21.875 15.625 20.4759 15.625 18.75C15.625 17.0241 17.0241 15.625 18.75 15.625C20.4759 15.625 21.875 17.0241 21.875 18.75C21.875 20.4759 20.4759 21.875 18.75 21.875ZM6.25 15.625C4.52411 15.625 3.125 14.2259 3.125 12.5C3.125 10.7741 4.52411 9.375 6.25 9.375C7.97589 9.375 9.375 10.7741 9.375 12.5C9.375 14.2259 7.97589 15.625 6.25 15.625ZM18.75 9.375C17.0241 9.375 15.625 7.97589 15.625 6.25C15.625 4.52411 17.0241 3.125 18.75 3.125C20.4759 3.125 21.875 4.52411 21.875 6.25C21.875 7.97589 20.4759 9.375 18.75 9.375Z" stroke="white" stroke-width="1.5" stroke-linecap="round" stroke-linejoin="round"/>
</svg>
