<svg width="24" height="24" viewBox="0 0 24 24" fill="none" xmlns="http://www.w3.org/2000/svg">
<path fill-rule="evenodd" clip-rule="evenodd" d="M11.9878 14.9201C10.377 14.9201 9.07118 13.6143 9.07118 12.0035C9.07118 10.3926 10.377 9.08681 11.9878 9.08681C13.5987 9.08681 14.9045 10.3926 14.9045 12.0035C14.9045 13.6143 13.5987 14.9201 11.9878 14.9201ZM19.7656 4.22569C20.8351 4.22569 21.7101 5.10069 21.7101 6.17014V17.8368C21.7101 18.9062 20.8351 19.7812 19.7656 19.7812H4.21007C3.14063 19.7812 2.26562 18.9062 2.26562 17.8368V6.17014C2.26562 5.10069 3.14063 4.22569 4.21007 4.22569H7.29201L8.48785 2.91319C8.85729 2.51458 9.38229 2.28125 9.92674 2.28125H14.049C14.5934 2.28125 15.1184 2.51458 15.4781 2.91319L16.6837 4.22569H19.7656ZM11.9878 16.8646C14.6712 16.8646 16.849 14.6868 16.849 12.0035C16.849 9.32014 14.6712 7.14236 11.9878 7.14236C9.30451 7.14236 7.12674 9.32014 7.12674 12.0035C7.12674 14.6868 9.30451 16.8646 11.9878 16.8646Z" fill="white"/>
</svg>
