<svg width="19" height="19" viewBox="0 0 19 19" fill="none" xmlns="http://www.w3.org/2000/svg">
<path d="M11.3704 2.09849L12.9337 5.17705C13.1478 5.59961 13.7135 6.01064 14.1905 6.07683L17.0281 6.50745C18.8451 6.77925 19.2605 8.07484 17.959 9.38582L15.7422 11.6064C15.372 11.9786 15.1569 12.7016 15.2773 13.205L15.9031 15.9052C16.3949 18.037 15.2468 18.8847 13.3412 17.7935L10.6792 16.2688C10.1945 15.9901 9.40448 16.0078 8.92528 16.2936L6.25906 17.8866C4.35048 19.0252 3.20275 18.2119 3.70374 16.068L4.34389 13.3549C4.46343 12.8478 4.26074 12.1303 3.89042 11.7701L1.66851 9.60913C0.372212 8.33835 0.792453 7.03172 2.60744 6.70627L5.44134 6.20011C5.91978 6.11077 6.48777 5.69529 6.69962 5.26285L8.27602 2.13452C9.13662 0.449325 10.5266 0.432379 11.3704 2.09849Z" fill="white"/>
</svg>
