<svg width="22" height="22" viewBox="0 0 22 22" fill="none" xmlns="http://www.w3.org/2000/svg">
<path d="M8.184 2.95778L9.68 5.5H6.53156C6.29148 5.5257 6.04869 5.5006 5.81896 5.42632C5.58922 5.35204 5.37769 5.23025 5.1981 5.06887C5.01852 4.90749 4.87491 4.71012 4.7766 4.4896C4.67829 4.26908 4.62748 4.03033 4.62748 3.78889C4.62748 3.54745 4.67829 3.3087 4.7766 3.08818C4.87491 2.86766 5.01852 2.67029 5.1981 2.50891C5.37769 2.34753 5.58922 2.22574 5.81896 2.15146C6.04869 2.07718 6.29148 2.05208 6.53156 2.07778H6.62444C6.9386 2.07553 7.24787 2.15558 7.52148 2.30996C7.7951 2.46435 8.02351 2.6877 8.184 2.95778ZM2.75244 3.77911C2.75484 4.37847 2.90068 4.96854 3.17778 5.5H1.37378C1.00943 5.5 0.660004 5.64474 0.40237 5.90237C0.144737 6.16 0 6.50943 0 6.87378V9.62622C0 9.80663 0.0355338 9.98527 0.104573 10.1519C0.173611 10.3186 0.274803 10.4701 0.40237 10.5976C0.529937 10.7252 0.681381 10.8264 0.848056 10.8954C1.01473 10.9645 1.19337 11 1.37378 11H20.6262C20.9906 11 21.34 10.8553 21.5976 10.5976C21.8553 10.34 22 9.99057 22 9.62622V6.87378C22 6.50943 21.8553 6.16 21.5976 5.90237C21.34 5.64474 20.9906 5.5 20.6262 5.5H18.8222C19.1165 4.9247 19.2583 4.28355 19.2341 3.63782C19.21 2.99208 19.0207 2.36332 18.6842 1.81161C18.3478 1.2599 17.8755 0.803675 17.3125 0.486511C16.7496 0.169346 16.1146 0.00184238 15.4684 1.13756e-06H15.4C14.7257 -2.93659e-05 14.063 0.175826 13.4774 0.510201C12.8918 0.844577 12.4036 1.32591 12.0609 1.90667L11 3.66667L9.96356 1.90667C9.62123 1.32558 9.13307 0.84398 8.5474 0.509557C7.96173 0.175133 7.29887 -0.000515763 6.62444 1.13756e-06H6.53156C5.52927 1.13756e-06 4.56804 0.398156 3.85932 1.10688C3.1506 1.8156 2.75244 2.77683 2.75244 3.77911ZM17.1893 3.77911C17.1893 4.23552 17.008 4.67323 16.6853 4.99596C16.3626 5.31869 15.9249 5.5 15.4684 5.5H12.32L13.816 2.95778C13.9767 2.68135 14.2082 2.45274 14.4866 2.29549C14.765 2.13824 15.0803 2.05802 15.4 2.06311H15.4929C15.9442 2.06952 16.3749 2.25299 16.6923 2.57397C17.0096 2.89495 17.1881 3.32775 17.1893 3.77911ZM1.37378 12.3738V19.9369C1.37378 20.4841 1.59114 21.0088 1.97805 21.3957C2.36496 21.7826 2.88972 22 3.43689 22H9.62622V12.3738H1.37378ZM12.3738 22H18.5631C19.1103 22 19.635 21.7826 20.022 21.3957C20.4089 21.0088 20.6262 20.4841 20.6262 19.9369V12.3738H12.3738V22Z" fill="white"/>
</svg>
