<svg viewBox="0 0 25 25" fill="none" xmlns="http://www.w3.org/2000/svg">
    <path
        d="M12.7246 23.6562C18.9378 23.6562 23.9746 18.6195 23.9746 12.4062C23.9746 6.19305 18.9378 1.15625 12.7246 1.15625C6.51141 1.15625 1.47461 6.19305 1.47461 12.4062C1.47461 18.6195 6.51141 23.6562 12.7246 23.6562Z"
        stroke="#666666" stroke-width="2" stroke-linecap="round" stroke-linejoin="round" />
    <path
        d="M9.45898 9.02847C9.72348 8.2766 10.2455 7.64259 10.9327 7.23875C11.6198 6.8349 12.4277 6.68728 13.2133 6.82202C13.9989 6.95677 14.7114 7.36519 15.2247 7.97494C15.738 8.5847 16.0189 9.35644 16.0177 10.1535C16.0177 12.4035 12.6427 13.5285 12.6427 13.5285"
        stroke="#666666" stroke-width="2" stroke-linecap="round" stroke-linejoin="round" />
    <path d="M12.7246 18.0312H12.7359" stroke="#666666" stroke-width="2" stroke-linecap="round"
        stroke-linejoin="round" />
</svg>