<svg viewBox="0 0 16 20" fill="none" xmlns="http://www.w3.org/2000/svg">
    <path
        d="M8.4251 2.49609C5.63969 2.49609 3.37601 4.75977 3.37601 7.54519V9.97717C3.37601 10.4905 3.15722 11.2731 2.89635 11.7107L1.9286 13.318C1.33113 14.311 1.74347 15.4134 2.83744 15.7836C6.46437 16.9954 10.3774 16.9954 14.0044 15.7836C15.0226 15.447 15.4686 14.2437 14.9132 13.318L13.9454 11.7107C13.693 11.2731 13.4742 10.4905 13.4742 9.97717V7.54519C13.4742 4.76819 11.2021 2.49609 8.4251 2.49609Z"
        stroke="black" stroke-width="1.5" stroke-miterlimit="10" stroke-linecap="round" />
    <path
        d="M9.98665 2.7439C8.96902 2.45408 7.89068 2.45408 6.87305 2.7439C7.11709 2.12118 7.72298 1.68359 8.42985 1.68359C9.13672 1.68359 9.74261 2.12118 9.98665 2.7439Z"
        stroke="black" stroke-width="1.5" stroke-miterlimit="10" stroke-linecap="round" stroke-linejoin="round" />
    <path
        d="M10.9534 16.0898C10.9534 17.4783 9.81734 18.6144 8.42884 18.6144C7.7388 18.6144 7.09925 18.3283 6.64483 17.8739C6.17203 17.4003 5.90581 16.759 5.9043 16.0898"
        stroke="black" stroke-width="1.5" stroke-miterlimit="10" />
</svg>