<svg viewBox="0 0 19 21" fill="none" xmlns="http://www.w3.org/2000/svg">
    <path
        d="M18.1621 5.71875V15.0938C18.1621 17.9062 16.7559 19.7812 13.4746 19.7812H5.97461C2.69336 19.7812 1.28711 17.9062 1.28711 15.0938V5.71875C1.28711 2.90625 2.69336 1.03125 5.97461 1.03125H13.4746C16.7559 1.03125 18.1621 2.90625 18.1621 5.71875Z"
        stroke="#666666" stroke-width="1.5" stroke-miterlimit="10" stroke-linecap="round" stroke-linejoin="round" />
    <path
        d="M10.8965 12.2812H14.8809M6.91211 16.0312H14.8809M13.0059 8.4V4.3125C13.0059 2.50032 11.5368 1.03125 9.72461 1.03125V1.03125C7.91243 1.03125 6.44336 2.50032 6.44336 4.3125V8.4C6.44336 8.8125 6.93086 9.01875 7.23086 8.74687L9.40586 6.74063C9.49212 6.65941 9.60613 6.61419 9.72461 6.61419C9.84309 6.61419 9.9571 6.65941 10.0434 6.74063L12.2184 8.74687C12.5184 9.01875 13.0059 8.8125 13.0059 8.4Z"
        stroke="#666666" stroke-width="1.5" stroke-miterlimit="10" stroke-linecap="round" stroke-linejoin="round" />
</svg>