<svg viewBox="0 0 20 19" fill="none" xmlns="http://www.w3.org/2000/svg">
    <path
        d="M14.9934 8.23625C14.8019 8.23625 14.6183 8.1602 14.4829 8.02482C14.3475 7.88944 14.2715 7.70583 14.2715 7.51438C14.2715 7.1675 13.9246 6.44562 13.3434 5.8175C12.7715 5.20813 12.1434 4.85188 11.6184 4.85188C11.4269 4.85188 11.2433 4.77582 11.1079 4.64044C10.9725 4.50506 10.8965 4.32145 10.8965 4.13C10.8965 3.73625 11.2246 3.40813 11.6184 3.40813C12.5559 3.40813 13.5402 3.91438 14.4027 4.82375C15.209 5.67688 15.7246 6.73625 15.7246 7.505C15.7246 7.90812 15.3965 8.23625 14.9934 8.23625ZM18.3777 8.23438C18.1863 8.23438 18.0027 8.15832 17.8673 8.02294C17.7319 7.88757 17.6559 7.70395 17.6559 7.5125C17.6559 4.18437 14.9465 1.48438 11.6277 1.48438C11.4363 1.48438 11.2527 1.40832 11.1173 1.27294C10.9819 1.13756 10.9059 0.953953 10.9059 0.7625C10.9059 0.36875 11.2246 0.03125 11.6184 0.03125C15.7434 0.03125 19.0996 3.3875 19.0996 7.5125C19.0996 7.90625 18.7715 8.23438 18.3777 8.23438ZM8.83398 12.1719L7.09961 13.9062C6.73398 14.2719 6.15273 14.2719 5.77773 13.9156C5.67461 13.8125 5.57148 13.7188 5.46836 13.6156C4.52033 12.6613 3.64595 11.6365 2.85273 10.55C2.08398 9.48125 1.46523 8.4125 1.01523 7.35313C0.574609 6.28438 0.349609 5.2625 0.349609 4.2875C0.349609 3.65 0.462109 3.04063 0.687109 2.47813C0.912109 1.90625 1.26836 1.38125 1.76523 0.9125C2.36523 0.321875 3.02148 0.03125 3.71523 0.03125C3.97773 0.03125 4.24023 0.0875001 4.47461 0.2C4.71836 0.3125 4.93398 0.48125 5.10273 0.725L7.27773 3.79063C7.44648 4.025 7.56836 4.24062 7.65273 4.44688C7.73711 4.64375 7.78398 4.84063 7.78398 5.01875C7.78398 5.24375 7.71836 5.46875 7.58711 5.68437C7.46523 5.9 7.28711 6.125 7.06211 6.35L6.34961 7.09062C6.24648 7.19375 6.19961 7.31563 6.19961 7.46563C6.19961 7.54063 6.20898 7.60625 6.22773 7.68125C6.27492 7.80708 6.3338 7.92881 6.40458 8.04305C6.57895 8.3245 6.83563 8.66814 7.17461 9.06875C7.59648 9.55625 8.04648 10.0531 8.53398 10.55C8.62773 10.6438 8.73086 10.7375 8.82461 10.8313C9.19961 11.1969 9.20898 11.7969 8.83398 12.1719ZM19.0715 15.3406C19.0702 15.6944 18.9902 16.0435 18.8371 16.3625C18.6777 16.7 18.4715 17.0188 18.1996 17.3188C17.744 17.8209 17.2422 18.1847 16.676 18.4193C16.6668 18.4231 16.6569 18.4253 16.648 18.4297C16.6392 18.4341 16.6293 18.4363 16.6202 18.44C16.0709 18.6614 15.4755 18.7812 14.834 18.7812C13.8777 18.7812 12.8559 18.5562 11.7777 18.0969C10.6996 17.6375 9.62148 17.0188 8.55273 16.2406C7.96467 15.8033 7.92055 14.9603 8.43874 14.4421L9.95492 12.9259C10.2908 12.5901 10.8132 12.5702 11.234 12.7906C11.2809 12.8094 11.3371 12.8375 11.4027 12.8656C11.4777 12.8937 11.5527 12.9031 11.6371 12.9031C11.7965 12.9031 11.9184 12.8469 12.0215 12.7438L12.734 12.0406C12.9684 11.8063 13.1934 11.6281 13.409 11.5156C13.6246 11.3844 13.8402 11.3188 14.0746 11.3188C14.2527 11.3188 14.4402 11.3562 14.6465 11.4406C14.8527 11.525 15.0684 11.6469 15.3027 11.8063L18.4059 14.0094C18.6496 14.1781 18.8184 14.375 18.9215 14.6094C19.0152 14.8437 19.0715 15.0781 19.0715 15.3406Z"
        fill="url(#paint0_linear_323_1073)" />
    <defs>
        <linearGradient id="paint0_linear_323_1073" x1="9.72461" y1="0.03125" x2="9.72461" y2="18.7812"
            gradientUnits="userSpaceOnUse">
            <stop stop-color="#26BB00" />
            <stop offset="1" stop-color="#02F040" />
        </linearGradient>
    </defs>
</svg>