<svg viewBox="0 0 38 48" fill="none" xmlns="http://www.w3.org/2000/svg">
<path d="M19 29.0002C17.8084 29.0002 16.6446 29.1192 15.5199 29.3462M19 29.0002C20.2197 29.0002 21.3747 29.1177 22.4801 29.3462M19 29.0002C20.1916 29.0002 21.3554 29.1192 22.4801 29.3462M19 29.0002C17.7803 29.0002 16.6253 29.1177 15.5199 29.3462M15.5199 29.3462C7.52215 30.9599 1.5 38.0268 1.5 46.5002M15.5199 29.3462C13.7361 29.715 12.0814 30.3728 10.492 31.2923M27.508 31.2923C25.9186 30.3728 24.2639 29.715 22.4801 29.3462M22.4801 29.3462C30.4779 30.9599 36.5 38.0268 36.5 46.5002M19 21.5002C13.4772 21.5002 9 17.023 9 11.5002C9 5.9773 13.4772 1.50015 19 1.50015C24.5228 1.50015 29 5.9773 29 11.5002C29 17.023 24.5228 21.5002 19 21.5002Z" stroke="white" stroke-width="1.5" stroke-linecap="round" stroke-linejoin="round"/>
</svg>
