<svg width="45" height="46" viewBox="0 0 45 46" fill="none" xmlns="http://www.w3.org/2000/svg">
<rect x="0.25" y="0.995117" width="44.5" height="44.5" rx="14.75" fill="white" stroke="#D4D4D4" stroke-width="0.5"/>
<path d="M27.7688 22.0751C27.5773 22.0751 27.3937 21.9991 27.2583 21.8637C27.1229 21.7283 27.0469 21.5447 27.0469 21.3532C27.0469 21.0064 26.7 20.2845 26.1187 19.6564C25.5469 19.047 24.9188 18.6907 24.3938 18.6907C24.2023 18.6907 24.0187 18.6147 23.8833 18.4793C23.7479 18.3439 23.6719 18.1603 23.6719 17.9689C23.6719 17.5751 24 17.247 24.3938 17.247C25.3313 17.247 26.3156 17.7532 27.1781 18.6626C27.9844 19.5157 28.5 20.5751 28.5 21.3439C28.5 21.747 28.1719 22.0751 27.7688 22.0751ZM31.1531 22.0732C30.9617 22.0732 30.7781 21.9972 30.6427 21.8618C30.5073 21.7264 30.4312 21.5428 30.4312 21.3514C30.4312 18.0232 27.7219 15.3232 24.4031 15.3232C24.2117 15.3232 24.0281 15.2472 23.8927 15.1118C23.7573 14.9764 23.6813 14.7928 23.6813 14.6014C23.6813 14.2076 24 13.8701 24.3938 13.8701C28.5188 13.8701 31.875 17.2264 31.875 21.3514C31.875 21.7451 31.5469 22.0732 31.1531 22.0732ZM21.6094 26.0107L19.875 27.7451C19.5094 28.1107 18.9281 28.1107 18.5531 27.7545C18.45 27.6514 18.3469 27.5576 18.2438 27.4545C17.2957 26.5001 16.4213 25.4753 15.6281 24.3889C14.8594 23.3201 14.2406 22.2514 13.7906 21.192C13.35 20.1232 13.125 19.1014 13.125 18.1264C13.125 17.4889 13.2375 16.8795 13.4625 16.317C13.6875 15.7451 14.0438 15.2201 14.5406 14.7514C15.1406 14.1607 15.7969 13.8701 16.4906 13.8701C16.7531 13.8701 17.0156 13.9264 17.25 14.0389C17.4938 14.1514 17.7094 14.3201 17.8781 14.5639L20.0531 17.6295C20.2219 17.8639 20.3438 18.0795 20.4281 18.2857C20.5125 18.4826 20.5594 18.6795 20.5594 18.8576C20.5594 19.0826 20.4938 19.3076 20.3625 19.5232C20.2406 19.7389 20.0625 19.9639 19.8375 20.1889L19.125 20.9295C19.0219 21.0326 18.975 21.1545 18.975 21.3045C18.975 21.3795 18.9844 21.4451 19.0031 21.5201C19.0503 21.6459 19.1092 21.7677 19.18 21.8819C19.3543 22.1634 19.611 22.507 19.95 22.9076C20.3719 23.3951 20.8219 23.892 21.3094 24.3889C21.4031 24.4826 21.5063 24.5764 21.6 24.6701C21.975 25.0357 21.9844 25.6357 21.6094 26.0107ZM31.8469 29.1795C31.8456 29.5333 31.7656 29.8824 31.6125 30.2014C31.4531 30.5389 31.2469 30.8576 30.975 31.1576C30.5193 31.6598 30.0176 32.0236 29.4514 32.2581C29.4422 32.2619 29.4323 32.2641 29.4234 32.2686C29.4146 32.273 29.4047 32.2752 29.3956 32.2788C28.8463 32.5003 28.2509 32.6201 27.6094 32.6201C26.6531 32.6201 25.6312 32.3951 24.5531 31.9357C23.475 31.4764 22.3969 30.8576 21.3281 30.0795C20.7401 29.6422 20.6959 28.7992 21.2141 28.281L22.7303 26.7648C23.0662 26.429 23.5886 26.4091 24.0094 26.6295C24.0562 26.6482 24.1125 26.6764 24.1781 26.7045C24.2531 26.7326 24.3281 26.742 24.4125 26.742C24.5719 26.742 24.6937 26.6857 24.7969 26.5826L25.5094 25.8795C25.7437 25.6451 25.9688 25.467 26.1844 25.3545C26.4 25.2232 26.6156 25.1576 26.85 25.1576C27.0281 25.1576 27.2156 25.1951 27.4219 25.2795C27.6281 25.3639 27.8438 25.4857 28.0781 25.6451L31.1812 27.8482C31.425 28.017 31.5938 28.2139 31.6969 28.4482C31.7906 28.6826 31.8469 28.917 31.8469 29.1795Z" fill="url(#paint0_linear_290_232)"/>
<defs>
<linearGradient id="paint0_linear_290_232" x1="22.5" y1="13.8701" x2="22.5" y2="32.6201" gradientUnits="userSpaceOnUse">
<stop stop-color="#26BB00"/>
<stop offset="1" stop-color="#02F040"/>
</linearGradient>
</defs>
</svg>
