<svg width="45" height="46" viewBox="0 0 45 46" fill="none" xmlns="http://www.w3.org/2000/svg">
<rect x="0.25" y="0.995117" width="44.5" height="44.5" rx="14.75" fill="white" stroke="#D4D4D4" stroke-width="0.5"/>
<path d="M22.5 34.4951C28.7132 34.4951 33.75 29.4583 33.75 23.2451C33.75 17.0319 28.7132 11.9951 22.5 11.9951C16.2868 11.9951 11.25 17.0319 11.25 23.2451C11.25 29.4583 16.2868 34.4951 22.5 34.4951Z" stroke="#666666" stroke-width="2" stroke-linecap="round" stroke-linejoin="round"/>
<path d="M19.2344 19.8673C19.4989 19.1155 20.0209 18.4815 20.7081 18.0776C21.3952 17.6738 22.2031 17.5261 22.9887 17.6609C23.7743 17.7956 24.4868 18.2041 25.0001 18.8138C25.5134 19.4236 25.7943 20.1953 25.7931 20.9923C25.7931 23.2423 22.4181 24.3673 22.4181 24.3673" stroke="#666666" stroke-width="2" stroke-linecap="round" stroke-linejoin="round"/>
<path d="M22.5 28.8701H22.5113" stroke="#666666" stroke-width="2" stroke-linecap="round" stroke-linejoin="round"/>
</svg>
