<svg width="26" height="26" viewBox="0 0 26 26" fill="none" xmlns="http://www.w3.org/2000/svg">
<path opacity="0.16" d="M11.3859 3.97038C11.5891 3.74342 11.8379 3.56187 12.1161 3.43757C12.3942 3.31327 12.6954 3.24902 13.0001 3.24902C13.3047 3.24902 13.606 3.31327 13.8841 3.43757C14.1622 3.56187 14.411 3.74342 14.6142 3.97038L15.3726 4.81755C15.5893 5.05967 15.8577 5.24994 16.158 5.37427C16.4582 5.4986 16.7825 5.55381 17.107 5.5358L18.2445 5.47297C18.5487 5.4562 18.8531 5.50379 19.1377 5.61263C19.4223 5.72148 19.6808 5.88913 19.8962 6.10465C20.1116 6.32016 20.2791 6.57869 20.3878 6.86335C20.4966 7.14801 20.544 7.45239 20.5271 7.75663L20.4642 8.89305C20.4464 9.21733 20.5017 9.54147 20.626 9.8415C20.7503 10.1415 20.9405 10.4098 21.1825 10.6264L22.0297 11.3847C22.2568 11.5879 22.4385 11.8368 22.5629 12.115C22.6873 12.3933 22.7516 12.6946 22.7516 12.9994C22.7516 13.3042 22.6873 13.6056 22.5629 13.8838C22.4385 14.162 22.2568 14.4109 22.0297 14.6141L21.1825 15.3725C20.9404 15.5892 20.7501 15.8576 20.6258 16.1578C20.5014 16.4581 20.4462 16.7824 20.4642 17.1069L20.5271 18.2444C20.5439 18.5486 20.4963 18.853 20.3874 19.1376C20.2786 19.4222 20.1109 19.6807 19.8954 19.8961C19.6799 20.1115 19.4214 20.279 19.1367 20.3877C18.852 20.4964 18.5477 20.5439 18.2434 20.527L17.107 20.4641C16.7827 20.4463 16.4586 20.5016 16.1586 20.6259C15.8585 20.7502 15.5903 20.9404 15.3737 21.1824L14.6153 22.0296C14.4121 22.2567 14.1632 22.4384 13.885 22.5628C13.6068 22.6872 13.3054 22.7515 13.0006 22.7515C12.6958 22.7515 12.3945 22.6872 12.1162 22.5628C11.838 22.4384 11.5891 22.2567 11.3859 22.0296L10.6276 21.1824C10.4109 20.9403 10.1424 20.75 9.8422 20.6257C9.54197 20.5013 9.21762 20.4461 8.89317 20.4641L7.75567 20.527C7.45142 20.5437 7.14705 20.4961 6.86245 20.3873C6.57784 20.2785 6.31939 20.1108 6.10398 19.8953C5.88857 19.6798 5.72104 19.4212 5.61233 19.1366C5.50361 18.8519 5.45617 18.5475 5.47308 18.2433L5.53592 17.1069C5.55376 16.7826 5.49847 16.4585 5.37415 16.1584C5.24982 15.8584 5.05964 15.5902 4.81767 15.3736L3.9705 14.6152C3.74336 14.412 3.56165 14.1631 3.43724 13.8849C3.31284 13.6067 3.24854 13.3053 3.24854 13.0005C3.24854 12.6957 3.31284 12.3944 3.43724 12.1161C3.56165 11.8379 3.74336 11.589 3.9705 11.3858L4.81767 10.6275C5.05979 10.4107 5.25006 10.1423 5.37439 9.84209C5.49872 9.54186 5.55392 9.21751 5.53592 8.89305L5.47308 7.75555C5.45647 7.45139 5.50418 7.14714 5.6131 6.86267C5.72201 6.57819 5.88969 6.31988 6.10519 6.10459C6.32068 5.8893 6.57916 5.72186 6.86374 5.61321C7.14832 5.50457 7.45261 5.45715 7.75675 5.47405L8.89317 5.53688C9.21744 5.55472 9.54158 5.49944 9.84161 5.37511C10.1416 5.25079 10.4099 5.06061 10.6265 4.81863L11.3859 3.97038Z" fill="#D4D4D4"/>
<path d="M11.3859 3.97038C11.5891 3.74342 11.8379 3.56187 12.1161 3.43757C12.3942 3.31327 12.6954 3.24902 13.0001 3.24902C13.3047 3.24902 13.606 3.31327 13.8841 3.43757C14.1622 3.56187 14.411 3.74342 14.6142 3.97038L15.3726 4.81755C15.5893 5.05967 15.8577 5.24994 16.158 5.37427C16.4582 5.4986 16.7825 5.55381 17.107 5.5358L18.2445 5.47297C18.5487 5.4562 18.8531 5.50379 19.1377 5.61263C19.4223 5.72148 19.6808 5.88913 19.8962 6.10465C20.1116 6.32016 20.2791 6.57869 20.3878 6.86335C20.4966 7.14801 20.544 7.45239 20.5271 7.75663L20.4642 8.89305C20.4464 9.21733 20.5017 9.54147 20.626 9.8415C20.7503 10.1415 20.9405 10.4098 21.1825 10.6264L22.0297 11.3847C22.2568 11.5879 22.4385 11.8368 22.5629 12.115C22.6873 12.3933 22.7516 12.6946 22.7516 12.9994C22.7516 13.3042 22.6873 13.6056 22.5629 13.8838C22.4385 14.162 22.2568 14.4109 22.0297 14.6141L21.1825 15.3725C20.9404 15.5892 20.7501 15.8576 20.6258 16.1578C20.5014 16.4581 20.4462 16.7824 20.4642 17.1069L20.5271 18.2444C20.5439 18.5486 20.4963 18.853 20.3874 19.1376C20.2786 19.4222 20.1109 19.6807 19.8954 19.8961C19.6799 20.1115 19.4214 20.279 19.1367 20.3877C18.852 20.4964 18.5477 20.5439 18.2434 20.527L17.107 20.4641C16.7827 20.4463 16.4586 20.5016 16.1586 20.6259C15.8585 20.7502 15.5903 20.9404 15.3737 21.1824L14.6153 22.0295C14.4121 22.2567 14.1632 22.4384 13.885 22.5628C13.6068 22.6872 13.3054 22.7515 13.0006 22.7515C12.6958 22.7515 12.3945 22.6872 12.1162 22.5628C11.838 22.4384 11.5891 22.2567 11.3859 22.0295L10.6276 21.1824C10.4109 20.9403 10.1424 20.75 9.8422 20.6257C9.54197 20.5013 9.21762 20.4461 8.89317 20.4641L7.75567 20.527C7.45142 20.5437 7.14705 20.4961 6.86245 20.3873C6.57784 20.2785 6.31939 20.1108 6.10398 19.8953C5.88857 19.6798 5.72104 19.4212 5.61233 19.1366C5.50361 18.8519 5.45617 18.5475 5.47308 18.2433L5.53592 17.1069C5.55376 16.7826 5.49847 16.4585 5.37415 16.1584C5.24982 15.8584 5.05964 15.5902 4.81767 15.3736L3.9705 14.6152C3.74336 14.412 3.56165 14.1631 3.43724 13.8849C3.31284 13.6066 3.24854 13.3053 3.24854 13.0005C3.24854 12.6957 3.31284 12.3944 3.43724 12.1161C3.56165 11.8379 3.74336 11.589 3.9705 11.3858L4.81767 10.6275C5.05979 10.4107 5.25006 10.1423 5.37439 9.84209C5.49872 9.54186 5.55392 9.21751 5.53592 8.89305L5.47308 7.75555C5.45647 7.45139 5.50418 7.14714 5.6131 6.86267C5.72201 6.57819 5.88969 6.31988 6.10519 6.10459C6.32068 5.8893 6.57916 5.72186 6.86374 5.61322C7.14832 5.50457 7.45261 5.45715 7.75675 5.47405L8.89317 5.53688C9.21744 5.55472 9.54158 5.49944 9.84161 5.37511C10.1416 5.25079 10.4099 5.06061 10.6265 4.81863L11.3859 3.97038Z" stroke="#D4D4D4" stroke-width="2"/>
<path d="M10.2917 10.292H10.3026V10.3028H10.2917V10.292ZM15.7084 15.7087H15.7192V15.7195H15.7084V15.7087Z" stroke="#D4D4D4" stroke-width="3" stroke-linejoin="round"/>
<path d="M16.25 9.75L9.75 16.25" stroke="#D4D4D4" stroke-width="2" stroke-linecap="round" stroke-linejoin="round"/>
</svg>
