<svg width="8" height="12" viewBox="0 0 8 12" fill="none" xmlns="http://www.w3.org/2000/svg">
<path d="M4 0.5C4.61818 0.500157 5.22545 0.663732 5.75977 0.974609C6.2942 1.28564 6.73739 1.73294 7.04297 2.27051C7.34847 2.80796 7.50608 3.41698 7.5 4.03516C7.49385 4.65345 7.324 5.25965 7.00781 5.79102L7.00391 5.79688L3.99902 10.999L0.998047 5.80078L0.994141 5.79492L0.882812 5.5918C0.637723 5.11155 0.505937 4.58028 0.5 4.03906C0.493277 3.4204 0.650636 2.81052 0.956055 2.27246C1.2615 1.73438 1.70458 1.28695 2.23926 0.975586C2.70702 0.703225 3.23055 0.543561 3.76855 0.507812L4 0.5ZM4.7041 2.30176C4.36823 2.16264 3.99816 2.12541 3.6416 2.19629C3.28497 2.26722 2.95732 2.44309 2.7002 2.7002C2.44314 2.95729 2.26821 3.28503 2.19727 3.6416C2.12641 3.99806 2.16273 4.36733 2.30176 4.70312C2.44086 5.03901 2.67628 5.32629 2.97852 5.52832C3.28084 5.73035 3.63638 5.83884 4 5.83887C4.24145 5.83891 4.48102 5.79061 4.7041 5.69824C4.92696 5.60588 5.12921 5.47038 5.2998 5.2998C5.47056 5.12906 5.60683 4.92623 5.69922 4.70312C5.79146 4.48022 5.83888 4.24124 5.83887 4C5.83885 3.63639 5.73034 3.28085 5.52832 2.97852C5.3264 2.67643 5.03976 2.4409 4.7041 2.30176Z" stroke="#FF6600"/>
</svg>
