<svg viewBox="0 0 20 27" fill="none" xmlns="http://www.w3.org/2000/svg">
    <path
        d="M10.2469 12.0591C10.1219 12.0466 9.9719 12.0466 9.8344 12.0591C8.39965 12.0104 7.0402 11.4052 6.04394 10.3716C5.04767 9.33796 4.49282 7.95717 4.4969 6.52161C4.4969 3.4591 6.9719 0.971605 10.0469 0.971605C10.7749 0.958473 11.4984 1.08886 12.176 1.35533C12.8536 1.6218 13.4721 2.01912 13.9962 2.52462C14.5203 3.03012 14.9397 3.63389 15.2304 4.30147C15.5211 4.96904 15.6775 5.68734 15.6906 6.41535C15.7038 7.14337 15.5734 7.86684 15.3069 8.54447C15.0405 9.22209 14.6431 9.8406 14.1376 10.3647C13.6321 10.8887 13.0284 11.3081 12.3608 11.5988C11.6932 11.8896 10.9749 12.046 10.2469 12.0591ZM3.9969 16.6716C0.971899 18.6966 0.971899 21.9966 3.9969 24.0091C7.4344 26.3091 13.0719 26.3091 16.5094 24.0091C19.5344 21.9841 19.5344 18.6841 16.5094 16.6716C13.0844 14.3841 7.4469 14.3841 3.9969 16.6716Z"
        stroke="black" stroke-width="1.5" stroke-linecap="round" stroke-linejoin="round" />
</svg>