<svg width="75" height="30" viewBox="0 0 75 30" fill="none" xmlns="http://www.w3.org/2000/svg">
<rect x="0.5" y="0.5" width="74" height="29" rx="14.5" fill="url(#paint0_linear_267_1032)" stroke="#FF0000"/>
<path d="M12.3 10.98V15.18C12.3 15.6 12.4033 15.9233 12.61 16.15C12.8167 16.3767 13.12 16.49 13.52 16.49C13.92 16.49 14.2267 16.3767 14.44 16.15C14.6533 15.9233 14.76 15.6 14.76 15.18V10.98H16.47V15.17C16.47 15.7967 16.3367 16.3267 16.07 16.76C15.8033 17.1933 15.4433 17.52 14.99 17.74C14.5433 17.96 14.0433 18.07 13.49 18.07C12.9367 18.07 12.44 17.9633 12 17.75C11.5667 17.53 11.2233 17.2033 10.97 16.77C10.7167 16.33 10.59 15.7967 10.59 15.17V10.98H12.3ZM20.2108 18.07C19.6974 18.07 19.2374 17.9867 18.8308 17.82C18.4241 17.6533 18.0974 17.4067 17.8508 17.08C17.6108 16.7533 17.4841 16.36 17.4708 15.9H19.2908C19.3174 16.16 19.4074 16.36 19.5608 16.5C19.7141 16.6333 19.9141 16.7 20.1608 16.7C20.4141 16.7 20.6141 16.6433 20.7608 16.53C20.9074 16.41 20.9808 16.2467 20.9808 16.04C20.9808 15.8667 20.9208 15.7233 20.8008 15.61C20.6874 15.4967 20.5441 15.4033 20.3708 15.33C20.2041 15.2567 19.9641 15.1733 19.6508 15.08C19.1974 14.94 18.8274 14.8 18.5408 14.66C18.2541 14.52 18.0074 14.3133 17.8008 14.04C17.5941 13.7667 17.4908 13.41 17.4908 12.97C17.4908 12.3167 17.7274 11.8067 18.2008 11.44C18.6741 11.0667 19.2908 10.88 20.0508 10.88C20.8241 10.88 21.4474 11.0667 21.9208 11.44C22.3941 11.8067 22.6474 12.32 22.6808 12.98H20.8308C20.8174 12.7533 20.7341 12.5767 20.5808 12.45C20.4274 12.3167 20.2308 12.25 19.9908 12.25C19.7841 12.25 19.6174 12.3067 19.4908 12.42C19.3641 12.5267 19.3008 12.6833 19.3008 12.89C19.3008 13.1167 19.4074 13.2933 19.6208 13.42C19.8341 13.5467 20.1674 13.6833 20.6208 13.83C21.0741 13.9833 21.4408 14.13 21.7208 14.27C22.0074 14.41 22.2541 14.6133 22.4608 14.88C22.6674 15.1467 22.7708 15.49 22.7708 15.91C22.7708 16.31 22.6674 16.6733 22.4608 17C22.2608 17.3267 21.9674 17.5867 21.5808 17.78C21.1941 17.9733 20.7374 18.07 20.2108 18.07ZM25.5331 12.35V13.77H27.8231V15.09H25.5331V16.63H28.1231V18H23.8231V10.98H28.1231V12.35H25.5331ZM37.6324 18H35.9224L33.0624 13.67V18H31.3524V10.98H33.0624L35.9224 15.33V10.98H37.6324V18ZM42.192 18.07C41.532 18.07 40.9253 17.9167 40.372 17.61C39.8253 17.3033 39.3886 16.8767 39.062 16.33C38.742 15.7767 38.582 15.1567 38.582 14.47C38.582 13.7833 38.742 13.1667 39.062 12.62C39.3886 12.0733 39.8253 11.6467 40.372 11.34C40.9253 11.0333 41.532 10.88 42.192 10.88C42.852 10.88 43.4553 11.0333 44.002 11.34C44.5553 11.6467 44.9886 12.0733 45.302 12.62C45.622 13.1667 45.782 13.7833 45.782 14.47C45.782 15.1567 45.622 15.7767 45.302 16.33C44.982 16.8767 44.5486 17.3033 44.002 17.61C43.4553 17.9167 42.852 18.07 42.192 18.07ZM42.192 16.51C42.752 16.51 43.1986 16.3233 43.532 15.95C43.872 15.5767 44.042 15.0833 44.042 14.47C44.042 13.85 43.872 13.3567 43.532 12.99C43.1986 12.6167 42.752 12.43 42.192 12.43C41.6253 12.43 41.172 12.6133 40.832 12.98C40.4986 13.3467 40.332 13.8433 40.332 14.47C40.332 15.09 40.4986 15.5867 40.832 15.96C41.172 16.3267 41.6253 16.51 42.192 16.51ZM56.3933 10.98L54.5633 18H52.4933L51.3733 13.38L50.2133 18H48.1433L46.3633 10.98H48.1933L49.2033 16.09L50.4533 10.98H52.3333L53.5333 16.09L54.5533 10.98H56.3933Z" fill="white"/>
<path d="M62 16.9865L65.0904 13.9583L62 10.9302L62.9514 10L67 13.9583L62.9514 17.9167L62 16.9865Z" fill="white"/>
<defs>
<linearGradient id="paint0_linear_267_1032" x1="37.5" y1="0" x2="37.5" y2="30" gradientUnits="userSpaceOnUse">
<stop stop-color="#FF9800"/>
<stop offset="1" stop-color="#FF6600"/>
</linearGradient>
</defs>
</svg>
